<svg width="108" height="108" viewBox="0 0 108 108" fill="none" xmlns="http://www.w3.org/2000/svg">
<g filter="url(#filter0_d_14_10)">
<rect x="4" width="100" height="100" fill="#127FFF"/>
</g>
<path d="M89 49.5C89 69.1061 73.1061 85 53.5 85C33.8939 85 18 69.1061 18 49.5C18 29.8939 33.8939 14 53.5 14C73.1061 14 89 29.8939 89 49.5Z" fill="#1E26F0"/>
<g filter="url(#filter1_d_14_10)">
<path d="M89 49.5C89 69.1061 73.1061 85 53.5 85C33.8939 85 18 69.1061 18 49.5C18 29.8939 33.8939 14 53.5 14C73.1061 14 89 29.8939 89 49.5Z" fill="#1E26F0"/>
</g>
<path d="M86.3891 56.6119C87.0677 56.1367 87.2326 55.2014 86.7574 54.5228L79.0141 43.4642C78.539 42.7856 77.6037 42.6207 76.925 43.0959C76.2464 43.571 76.0815 44.5064 76.5567 45.185L83.4396 55.0148L73.6098 61.8977C72.9312 62.3729 72.7662 63.3082 73.2414 63.9868C73.7166 64.6654 74.6519 64.8303 75.3305 64.3552L86.3891 56.6119ZM24.2101 46.0942L85.2682 56.8604L85.7892 53.9059L24.7311 43.1398L24.2101 46.0942Z" fill="white"/>
<defs>
<filter id="filter0_d_14_10" x="0" y="0" width="108" height="108" filterUnits="userSpaceOnUse" color-interpolation-filters="sRGB">
<feFlood flood-opacity="0" result="BackgroundImageFix"/>
<feColorMatrix in="SourceAlpha" type="matrix" values="0 0 0 0 0 0 0 0 0 0 0 0 0 0 0 0 0 0 127 0" result="hardAlpha"/>
<feOffset dy="4"/>
<feGaussianBlur stdDeviation="2"/>
<feComposite in2="hardAlpha" operator="out"/>
<feColorMatrix type="matrix" values="0 0 0 0 0 0 0 0 0 0 0 0 0 0 0 0 0 0 0.25 0"/>
<feBlend mode="normal" in2="BackgroundImageFix" result="effect1_dropShadow_14_10"/>
<feBlend mode="normal" in="SourceGraphic" in2="effect1_dropShadow_14_10" result="shape"/>
</filter>
<filter id="filter1_d_14_10" x="14" y="14" width="79" height="79" filterUnits="userSpaceOnUse" color-interpolation-filters="sRGB">
<feFlood flood-opacity="0" result="BackgroundImageFix"/>
<feColorMatrix in="SourceAlpha" type="matrix" values="0 0 0 0 0 0 0 0 0 0 0 0 0 0 0 0 0 0 127 0" result="hardAlpha"/>
<feOffset dy="4"/>
<feGaussianBlur stdDeviation="2"/>
<feComposite in2="hardAlpha" operator="out"/>
<feColorMatrix type="matrix" values="0 0 0 0 0 0 0 0 0 0 0 0 0 0 0 0 0 0 0.25 0"/>
<feBlend mode="normal" in2="BackgroundImageFix" result="effect1_dropShadow_14_10"/>
<feBlend mode="normal" in="SourceGraphic" in2="effect1_dropShadow_14_10" result="shape"/>
</filter>
</defs>
</svg>
