<svg width="108" height="108" viewBox="0 0 108 108" fill="none" xmlns="http://www.w3.org/2000/svg">
<g filter="url(#filter0_d_14_10)">
<rect x="4" width="100" height="100" fill="#127FFF"/>
</g>
<path d="M89 49.5C89 69.1061 73.1061 85 53.5 85C33.8939 85 18 69.1061 18 49.5C18 29.8939 33.8939 14 53.5 14C73.1061 14 89 29.8939 89 49.5Z" fill="#1E26F0"/>
<g filter="url(#filter1_d_14_10)">
<path d="M89 49.5C89 69.1061 73.1061 85 53.5 85C33.8939 85 18 69.1061 18 49.5C18 29.8939 33.8939 14 53.5 14C73.1061 14 89 29.8939 89 49.5Z" fill="#1E26F0"/>
</g>
<path d="M39.888 21.7044C39.0878 21.49 38.2653 21.9649 38.0509 22.7651L34.5568 35.8051C34.3424 36.6053 34.8173 37.4278 35.6175 37.6422C36.4177 37.8566 37.2402 37.3817 37.4546 36.5815L40.5604 24.9904L52.1515 28.0962C52.9517 28.3106 53.7742 27.8358 53.9886 27.0356C54.2031 26.2354 53.7282 25.4129 52.928 25.1985L39.888 21.7044ZM71.7988 76.0969L40.7988 22.4033L38.2007 23.9033L69.2007 77.5969L71.7988 76.0969Z" fill="white"/>
<defs>
<filter id="filter0_d_14_10" x="0" y="0" width="108" height="108" filterUnits="userSpaceOnUse" color-interpolation-filters="sRGB">
<feFlood flood-opacity="0" result="BackgroundImageFix"/>
<feColorMatrix in="SourceAlpha" type="matrix" values="0 0 0 0 0 0 0 0 0 0 0 0 0 0 0 0 0 0 127 0" result="hardAlpha"/>
<feOffset dy="4"/>
<feGaussianBlur stdDeviation="2"/>
<feComposite in2="hardAlpha" operator="out"/>
<feColorMatrix type="matrix" values="0 0 0 0 0 0 0 0 0 0 0 0 0 0 0 0 0 0 0.25 0"/>
<feBlend mode="normal" in2="BackgroundImageFix" result="effect1_dropShadow_14_10"/>
<feBlend mode="normal" in="SourceGraphic" in2="effect1_dropShadow_14_10" result="shape"/>
</filter>
<filter id="filter1_d_14_10" x="14" y="14" width="79" height="79" filterUnits="userSpaceOnUse" color-interpolation-filters="sRGB">
<feFlood flood-opacity="0" result="BackgroundImageFix"/>
<feColorMatrix in="SourceAlpha" type="matrix" values="0 0 0 0 0 0 0 0 0 0 0 0 0 0 0 0 0 0 127 0" result="hardAlpha"/>
<feOffset dy="4"/>
<feGaussianBlur stdDeviation="2"/>
<feComposite in2="hardAlpha" operator="out"/>
<feColorMatrix type="matrix" values="0 0 0 0 0 0 0 0 0 0 0 0 0 0 0 0 0 0 0.25 0"/>
<feBlend mode="normal" in2="BackgroundImageFix" result="effect1_dropShadow_14_10"/>
<feBlend mode="normal" in="SourceGraphic" in2="effect1_dropShadow_14_10" result="shape"/>
</filter>
</defs>
</svg>
