<svg width="108" height="108" viewBox="0 0 108 108" fill="none" xmlns="http://www.w3.org/2000/svg">
<g filter="url(#filter0_d_14_10)">
<rect x="4" width="100" height="100" fill="#127FFF"/>
</g>
<path d="M89 49.5C89 69.1061 73.1061 85 53.5 85C33.8939 85 18 69.1061 18 49.5C18 29.8939 33.8939 14 53.5 14C73.1061 14 89 29.8939 89 49.5Z" fill="#1E26F0"/>
<g filter="url(#filter1_d_14_10)">
<path d="M89 49.5C89 69.1061 73.1061 85 53.5 85C33.8939 85 18 69.1061 18 49.5C18 29.8939 33.8939 14 53.5 14C73.1061 14 89 29.8939 89 49.5Z" fill="#1E26F0"/>
</g>
<path d="M80.2413 30.2044C80.3135 29.3791 79.703 28.6516 78.8777 28.5794L65.4291 27.4028C64.6038 27.3306 63.8763 27.941 63.8041 28.7663C63.7319 29.5916 64.3424 30.3191 65.1677 30.3913L77.122 31.4372L76.0761 43.3915C76.0039 44.2168 76.6144 44.9444 77.4397 45.0166C78.265 45.0888 78.9925 44.4783 79.0647 43.653L80.2413 30.2044ZM32.2164 71.0755L79.7112 31.2227L77.7828 28.9246L30.2881 68.7774L32.2164 71.0755Z" fill="white"/>
<defs>
<filter id="filter0_d_14_10" x="0" y="0" width="108" height="108" filterUnits="userSpaceOnUse" color-interpolation-filters="sRGB">
<feFlood flood-opacity="0" result="BackgroundImageFix"/>
<feColorMatrix in="SourceAlpha" type="matrix" values="0 0 0 0 0 0 0 0 0 0 0 0 0 0 0 0 0 0 127 0" result="hardAlpha"/>
<feOffset dy="4"/>
<feGaussianBlur stdDeviation="2"/>
<feComposite in2="hardAlpha" operator="out"/>
<feColorMatrix type="matrix" values="0 0 0 0 0 0 0 0 0 0 0 0 0 0 0 0 0 0 0.25 0"/>
<feBlend mode="normal" in2="BackgroundImageFix" result="effect1_dropShadow_14_10"/>
<feBlend mode="normal" in="SourceGraphic" in2="effect1_dropShadow_14_10" result="shape"/>
</filter>
<filter id="filter1_d_14_10" x="14" y="14" width="79" height="79" filterUnits="userSpaceOnUse" color-interpolation-filters="sRGB">
<feFlood flood-opacity="0" result="BackgroundImageFix"/>
<feColorMatrix in="SourceAlpha" type="matrix" values="0 0 0 0 0 0 0 0 0 0 0 0 0 0 0 0 0 0 127 0" result="hardAlpha"/>
<feOffset dy="4"/>
<feGaussianBlur stdDeviation="2"/>
<feComposite in2="hardAlpha" operator="out"/>
<feColorMatrix type="matrix" values="0 0 0 0 0 0 0 0 0 0 0 0 0 0 0 0 0 0 0.25 0"/>
<feBlend mode="normal" in2="BackgroundImageFix" result="effect1_dropShadow_14_10"/>
<feBlend mode="normal" in="SourceGraphic" in2="effect1_dropShadow_14_10" result="shape"/>
</filter>
</defs>
</svg>
