<svg width="1313" height="341" viewBox="0 0 1313 341" fill="none" xmlns="http://www.w3.org/2000/svg">
<g filter="url(#filter0_d_21_135)">
<circle cx="63.5" cy="69.5" r="18.5" fill="#D9D9D9"/>
</g>
<circle cx="63.5" cy="69.5" r="13.5" fill="black"/>
<g filter="url(#filter1_d_21_135)">
<circle cx="1290.5" cy="273.5" r="18.5" fill="#D9D9D9"/>
</g>
<circle cx="1290.5" cy="273.5" r="13.5" fill="black"/>
<g filter="url(#filter2_d_21_135)">
<circle cx="1290.5" cy="314.5" r="18.5" fill="#D9D9D9"/>
</g>
<circle cx="1290.5" cy="314.5" r="13.5" fill="black"/>
<path d="M61 195L143.484 277.484" stroke="#D9D9D9" stroke-width="15"/>
<path d="M137 276L1277 276" stroke="#D9D9D9" stroke-width="15"/>
<path d="M476 107V223" stroke="#D9D9D9" stroke-width="8"/>
<path d="M1129 115V231" stroke="#D9D9D9" stroke-width="8"/>
<path d="M1152 113V229" stroke="#D9D9D9" stroke-width="8"/>
<path d="M1175 118V234" stroke="#D9D9D9" stroke-width="8"/>
<path d="M1202 122V238" stroke="#D9D9D9" stroke-width="8"/>
<path d="M1202 40V156" stroke="#D9D9D9" stroke-width="8"/>
<path d="M1129 34V150" stroke="#D9D9D9" stroke-width="8"/>
<path d="M1152 33V149" stroke="#D9D9D9" stroke-width="8"/>
<path d="M1175 34V150" stroke="#D9D9D9" stroke-width="8"/>
<path d="M531 244H664" stroke="#D9D9D9" stroke-width="8"/>
<path d="M527 227H664" stroke="#D9D9D9" stroke-width="8"/>
<path d="M871 209L1112 209" stroke="#D9D9D9" stroke-width="8"/>
<path d="M873 244H1008" stroke="#D9D9D9" stroke-width="8"/>
<path d="M874 227H1009" stroke="#D9D9D9" stroke-width="8"/>
<path d="M510 105L645 105" stroke="#D9D9D9" stroke-width="8"/>
<path d="M510 89L645 89" stroke="#D9D9D9" stroke-width="8"/>
<path d="M871 54L1006 54" stroke="#D9D9D9" stroke-width="8"/>
<path d="M1027 38L1162 38" stroke="#D9D9D9" stroke-width="8"/>
<path d="M1024 230H1159" stroke="#D9D9D9" stroke-width="8"/>
<path d="M510 73L645 73" stroke="#D9D9D9" stroke-width="8"/>
<path d="M527 209H664" stroke="#D9D9D9" stroke-width="8"/>
<path d="M867 71L1102 71" stroke="#D9D9D9" stroke-width="8"/>
<path d="M882 103L1053 103" stroke="#D9D9D9" stroke-width="8"/>
<path d="M885 181H1056" stroke="#D9D9D9" stroke-width="8"/>
<path d="M1050 102L1077 129" stroke="#D9D9D9" stroke-width="8"/>
<path d="M1099 70L1129 98" stroke="#D9D9D9" stroke-width="8"/>
<path d="M1053 182L1078 153" stroke="#D9D9D9" stroke-width="8"/>
<path d="M450 126V223" stroke="#D9D9D9" stroke-width="8"/>
<path d="M367 102L367 135" stroke="#D9D9D9" stroke-width="8"/>
<path d="M367 156L367 189" stroke="#D9D9D9" stroke-width="8"/>
<path d="M403 160L403 193" stroke="#D9D9D9" stroke-width="8"/>
<path d="M311 65L368.778 105.111" stroke="#D9D9D9" stroke-width="8"/>
<path d="M428.222 74L402 105" stroke="#D9D9D9" stroke-width="8"/>
<path d="M321 249L368.839 229" stroke="#D9D9D9" stroke-width="8"/>
<path d="M366 200L366 233" stroke="#D9D9D9" stroke-width="8"/>
<path d="M403 202V229" stroke="#D9D9D9" stroke-width="8"/>
<path d="M401 226L446.988 249.202" stroke="#D9D9D9" stroke-width="8"/>
<path d="M403 102L403 141" stroke="#D9D9D9" stroke-width="8"/>
<path d="M214.22 119L214 197" stroke="#D9D9D9" stroke-width="8"/>
<path d="M450.22 114L450 128" stroke="#D9D9D9" stroke-width="8"/>
<path d="M314 125L314 207" stroke="#D9D9D9" stroke-width="8"/>
<path d="M284 122L284 204" stroke="#D9D9D9" stroke-width="8"/>
<path d="M243 19L243 101" stroke="#D9D9D9" stroke-width="8"/>
<path d="M279 19L279 101" stroke="#D9D9D9" stroke-width="8"/>
<path d="M260 18L260 100" stroke="#D9D9D9" stroke-width="8"/>
<path d="M243 122L243 204" stroke="#D9D9D9" stroke-width="8"/>
<path d="M63 83V200" stroke="#D9D9D9" stroke-width="15"/>
<g filter="url(#filter3_d_21_135)">
<circle cx="114.5" cy="27.5" r="18.5" fill="#D9D9D9"/>
</g>
<g filter="url(#filter4_d_21_135)">
<circle cx="114.5" cy="27.5" r="18.5" fill="#D9D9D9"/>
</g>
<circle cx="114.5" cy="27.5" r="13.5" fill="black"/>
<path d="M112 153L194.484 235.484" stroke="#D9D9D9" stroke-width="15"/>
<path d="M770.204 17.8299L796.796 50.1701" stroke="#D9D9D9" stroke-width="15"/>
<path d="M188 234L304.643 235.239" stroke="#D9D9D9" stroke-width="15"/>
<path d="M114 41V158" stroke="#D9D9D9" stroke-width="15"/>
<path d="M795 45V76" stroke="#D9D9D9" stroke-width="15"/>
<path d="M797 198V227" stroke="#D9D9D9" stroke-width="15"/>
<g filter="url(#filter5_d_21_135)">
<circle cx="606.5" cy="135.5" r="18.5" transform="rotate(-90 606.5 135.5)" fill="#D9D9D9"/>
</g>
<circle cx="606.5" cy="135.5" r="13.5" transform="rotate(-90 606.5 135.5)" fill="black"/>
<path d="M619.999 134.859L736.999 134.859" stroke="#D9D9D9" stroke-width="15"/>
<path d="M858 138L975 138" stroke="#D9D9D9" stroke-width="15"/>
<g filter="url(#filter6_d_21_135)">
<circle cx="645.5" cy="19.5" r="18.5" transform="rotate(-90 645.5 19.5)" fill="#D9D9D9"/>
</g>
<g filter="url(#filter7_d_21_135)">
<circle cx="643.5" cy="18.5" r="18.5" transform="rotate(-90 643.5 18.5)" fill="#D9D9D9"/>
</g>
<circle cx="643.5" cy="18.5" r="13.5" transform="rotate(-90 643.5 18.5)" fill="black"/>
<g filter="url(#filter8_d_21_135)">
<circle cx="990.5" cy="138.5" r="18.5" transform="rotate(-90 990.5 138.5)" fill="#D9D9D9"/>
</g>
<circle cx="990.5" cy="138.5" r="13.5" transform="rotate(-90 990.5 138.5)" fill="black"/>
<g filter="url(#filter9_d_21_135)">
<circle cx="796.5" cy="230.5" r="18.5" transform="rotate(-90 796.5 230.5)" fill="#D9D9D9"/>
</g>
<circle cx="796.5" cy="230.5" r="13.5" transform="rotate(-90 796.5 230.5)" fill="black"/>
<g filter="url(#filter10_d_21_135)">
<circle cx="669.5" cy="209.5" r="7.5" transform="rotate(-90 669.5 209.5)" fill="#D9D9D9"/>
</g>
<circle cx="669.5" cy="209.5" r="5.25" transform="rotate(-90 669.5 209.5)" fill="black"/>
<g filter="url(#filter11_d_21_135)">
<circle cx="669.5" cy="226.5" r="7.5" transform="rotate(-90 669.5 226.5)" fill="#D9D9D9"/>
</g>
<circle cx="669.5" cy="226.5" r="5.25" transform="rotate(-90 669.5 226.5)" fill="black"/>
<g filter="url(#filter12_d_21_135)">
<circle cx="669.5" cy="244.5" r="7.5" transform="rotate(-90 669.5 244.5)" fill="#D9D9D9"/>
</g>
<circle cx="669.5" cy="244.5" r="5.25" transform="rotate(-90 669.5 244.5)" fill="black"/>
<g filter="url(#filter13_d_21_135)">
<circle cx="867.5" cy="209.5" r="7.5" transform="rotate(-90 867.5 209.5)" fill="#D9D9D9"/>
</g>
<circle cx="867.5" cy="209.5" r="5.25" transform="rotate(-90 867.5 209.5)" fill="black"/>
<g filter="url(#filter14_d_21_135)">
<circle cx="867.5" cy="226.5" r="7.5" transform="rotate(-90 867.5 226.5)" fill="#D9D9D9"/>
</g>
<circle cx="867.5" cy="226.5" r="5.25" transform="rotate(-90 867.5 226.5)" fill="black"/>
<g filter="url(#filter15_d_21_135)">
<circle cx="867.5" cy="244.5" r="7.5" transform="rotate(-90 867.5 244.5)" fill="#D9D9D9"/>
</g>
<circle cx="867.5" cy="244.5" r="5.25" transform="rotate(-90 867.5 244.5)" fill="black"/>
<g filter="url(#filter16_d_21_135)">
<circle cx="866.5" cy="54.5" r="7.5" transform="rotate(-90 866.5 54.5)" fill="#D9D9D9"/>
</g>
<circle cx="866.5" cy="54.5" r="5.25" transform="rotate(-90 866.5 54.5)" fill="black"/>
<g filter="url(#filter17_d_21_135)">
<circle cx="866.5" cy="71.5" r="7.5" transform="rotate(-90 866.5 71.5)" fill="#D9D9D9"/>
</g>
<circle cx="866.5" cy="71.5" r="5.25" transform="rotate(-90 866.5 71.5)" fill="black"/>
<g filter="url(#filter18_d_21_135)">
<circle cx="884.5" cy="100.5" r="7.5" transform="rotate(-90 884.5 100.5)" fill="#D9D9D9"/>
</g>
<circle cx="884.5" cy="100.5" r="5.25" transform="rotate(-90 884.5 100.5)" fill="black"/>
<g filter="url(#filter19_d_21_135)">
<circle cx="887.5" cy="181.5" r="7.5" transform="rotate(-90 887.5 181.5)" fill="#D9D9D9"/>
</g>
<circle cx="887.5" cy="181.5" r="5.25" transform="rotate(-90 887.5 181.5)" fill="black"/>
<g filter="url(#filter20_d_21_135)">
<circle cx="279.5" cy="16.5" r="7.5" fill="#D9D9D9"/>
</g>
<circle cx="279.5" cy="16.5" r="5.25" fill="black"/>
<g filter="url(#filter21_d_21_135)">
<circle cx="260.5" cy="16.5" r="7.5" fill="#D9D9D9"/>
</g>
<circle cx="260.5" cy="16.5" r="5.25" fill="black"/>
<g filter="url(#filter22_d_21_135)">
<circle cx="242.5" cy="16.5" r="7.5" fill="#D9D9D9"/>
</g>
<circle cx="242.5" cy="16.5" r="5.25" fill="black"/>
<g filter="url(#filter23_d_21_135)">
<circle cx="649.5" cy="71.5" r="7.5" transform="rotate(-90 649.5 71.5)" fill="#D9D9D9"/>
</g>
<circle cx="649.5" cy="71.5" r="5.25" transform="rotate(-90 649.5 71.5)" fill="black"/>
<g filter="url(#filter24_d_21_135)">
<circle cx="649.5" cy="88.5" r="7.5" transform="rotate(-90 649.5 88.5)" fill="#D9D9D9"/>
</g>
<circle cx="649.5" cy="88.5" r="5.25" transform="rotate(-90 649.5 88.5)" fill="black"/>
<g filter="url(#filter25_d_21_135)">
<circle cx="649.5" cy="104.5" r="7.5" transform="rotate(-90 649.5 104.5)" fill="#D9D9D9"/>
</g>
<circle cx="649.5" cy="104.5" r="5.25" transform="rotate(-90 649.5 104.5)" fill="black"/>
<path d="M660 20L776.001 20.1409" stroke="#D9D9D9" stroke-width="15"/>
<g filter="url(#filter26_d_21_135)">
<circle cx="22.5" cy="111.5" r="18.5" fill="#D9D9D9"/>
</g>
<circle cx="22.5" cy="111.5" r="13.5" fill="black"/>
<path d="M20 237L102.484 319.484" stroke="#D9D9D9" stroke-width="15"/>
<path d="M96 318L1277 318" stroke="#D9D9D9" stroke-width="15"/>
<path d="M22 125V242" stroke="#D9D9D9" stroke-width="15"/>
<rect x="207" y="195" width="114.373" height="62.7205" fill="#686868"/>
<rect x="207" y="222.056" width="114.373" height="35.6646" fill="#4E4C4C"/>
<rect x="207" y="62" width="114.373" height="62.7205" fill="#686868"/>
<rect x="207" y="89.0559" width="114.373" height="35.6646" fill="#4E4C4C"/>
<rect x="411.149" y="62" width="114.373" height="62.7205" fill="#686868"/>
<rect x="411.149" y="89.0559" width="114.373" height="35.6646" fill="#4E4C4C"/>
<rect x="427" y="192" width="114.373" height="62.7205" fill="#686868"/>
<rect x="427" y="219.056" width="114.373" height="35.6646" fill="#4E4C4C"/>
<rect x="360" y="135" width="15" height="6" fill="#D9D9D9"/>
<rect x="360" y="141" width="15" height="19" fill="#4B4B4B"/>
<rect x="396" y="141" width="15" height="6" fill="#D9D9D9"/>
<rect x="396" y="147" width="15" height="19" fill="#4B4B4B"/>
<path d="M729 132L801 204" stroke="#D9D9D9" stroke-width="8"/>
<path d="M792 70L864 142" stroke="#D9D9D9" stroke-width="8"/>
<path d="M797 70L731 136" stroke="#D9D9D9" stroke-width="8"/>
<path d="M863 137L797 203" stroke="#D9D9D9" stroke-width="8"/>
<rect x="763.749" y="92.9219" width="15" height="6" transform="rotate(45 763.749 92.9219)" fill="#D9D9D9"/>
<rect x="759.507" y="97.1645" width="15" height="19" transform="rotate(45 759.507 97.1645)" fill="#4B4B4B"/>
<rect x="836.678" y="150" width="15" height="6" transform="rotate(45 836.678 150)" fill="#D9D9D9"/>
<rect x="832.435" y="154.243" width="15" height="19" transform="rotate(45 832.435 154.243)" fill="#4B4B4B"/>
<rect x="1067.27" y="126.162" width="15" height="6" fill="#D9D9D9"/>
<rect x="1067.27" y="151" width="15" height="6" fill="#D9D9D9"/>
<rect x="1067.27" y="132.162" width="15" height="19" fill="#4B4B4B"/>
<rect x="814.804" y="102.507" width="15" height="6" transform="rotate(-45 814.804 102.507)" fill="#D9D9D9"/>
<rect x="819.046" y="106.749" width="15" height="19" transform="rotate(-45 819.046 106.749)" fill="#4B4B4B"/>
<rect x="746" y="160.607" width="15" height="6" transform="rotate(-45 746 160.607)" fill="#D9D9D9"/>
<rect x="750.243" y="164.849" width="15" height="19" transform="rotate(-45 750.243 164.849)" fill="#4B4B4B"/>
<rect x="359" y="177" width="15" height="6" fill="#D9D9D9"/>
<rect x="359" y="183" width="15" height="19" fill="#4B4B4B"/>
<rect x="396" y="177" width="15" height="6" fill="#D9D9D9"/>
<rect x="396" y="183" width="15" height="19" fill="#4B4B4B"/>
<rect x="1112" y="114" width="114.373" height="35.6646" fill="#4E4C4C"/>
<rect x="948" y="23" width="114.373" height="35.6646" fill="#4E4C4C"/>
<rect x="1112" y="25" width="114.373" height="35.6646" fill="#4E4C4C"/>
<rect x="1112" y="203" width="114.373" height="35.6646" fill="#4E4C4C"/>
<rect x="953" y="213" width="114.373" height="35.6646" fill="#4E4C4C"/>
<defs>
<filter id="filter0_d_21_135" x="41" y="51" width="45" height="45" filterUnits="userSpaceOnUse" color-interpolation-filters="sRGB">
<feFlood flood-opacity="0" result="BackgroundImageFix"/>
<feColorMatrix in="SourceAlpha" type="matrix" values="0 0 0 0 0 0 0 0 0 0 0 0 0 0 0 0 0 0 127 0" result="hardAlpha"/>
<feOffset dy="4"/>
<feGaussianBlur stdDeviation="2"/>
<feComposite in2="hardAlpha" operator="out"/>
<feColorMatrix type="matrix" values="0 0 0 0 0 0 0 0 0 0 0 0 0 0 0 0 0 0 0.25 0"/>
<feBlend mode="normal" in2="BackgroundImageFix" result="effect1_dropShadow_21_135"/>
<feBlend mode="normal" in="SourceGraphic" in2="effect1_dropShadow_21_135" result="shape"/>
</filter>
<filter id="filter1_d_21_135" x="1268" y="255" width="45" height="45" filterUnits="userSpaceOnUse" color-interpolation-filters="sRGB">
<feFlood flood-opacity="0" result="BackgroundImageFix"/>
<feColorMatrix in="SourceAlpha" type="matrix" values="0 0 0 0 0 0 0 0 0 0 0 0 0 0 0 0 0 0 127 0" result="hardAlpha"/>
<feOffset dy="4"/>
<feGaussianBlur stdDeviation="2"/>
<feComposite in2="hardAlpha" operator="out"/>
<feColorMatrix type="matrix" values="0 0 0 0 0 0 0 0 0 0 0 0 0 0 0 0 0 0 0.25 0"/>
<feBlend mode="normal" in2="BackgroundImageFix" result="effect1_dropShadow_21_135"/>
<feBlend mode="normal" in="SourceGraphic" in2="effect1_dropShadow_21_135" result="shape"/>
</filter>
<filter id="filter2_d_21_135" x="1268" y="296" width="45" height="45" filterUnits="userSpaceOnUse" color-interpolation-filters="sRGB">
<feFlood flood-opacity="0" result="BackgroundImageFix"/>
<feColorMatrix in="SourceAlpha" type="matrix" values="0 0 0 0 0 0 0 0 0 0 0 0 0 0 0 0 0 0 127 0" result="hardAlpha"/>
<feOffset dy="4"/>
<feGaussianBlur stdDeviation="2"/>
<feComposite in2="hardAlpha" operator="out"/>
<feColorMatrix type="matrix" values="0 0 0 0 0 0 0 0 0 0 0 0 0 0 0 0 0 0 0.25 0"/>
<feBlend mode="normal" in2="BackgroundImageFix" result="effect1_dropShadow_21_135"/>
<feBlend mode="normal" in="SourceGraphic" in2="effect1_dropShadow_21_135" result="shape"/>
</filter>
<filter id="filter3_d_21_135" x="92" y="9" width="45" height="45" filterUnits="userSpaceOnUse" color-interpolation-filters="sRGB">
<feFlood flood-opacity="0" result="BackgroundImageFix"/>
<feColorMatrix in="SourceAlpha" type="matrix" values="0 0 0 0 0 0 0 0 0 0 0 0 0 0 0 0 0 0 127 0" result="hardAlpha"/>
<feOffset dy="4"/>
<feGaussianBlur stdDeviation="2"/>
<feComposite in2="hardAlpha" operator="out"/>
<feColorMatrix type="matrix" values="0 0 0 0 0 0 0 0 0 0 0 0 0 0 0 0 0 0 0.25 0"/>
<feBlend mode="normal" in2="BackgroundImageFix" result="effect1_dropShadow_21_135"/>
<feBlend mode="normal" in="SourceGraphic" in2="effect1_dropShadow_21_135" result="shape"/>
</filter>
<filter id="filter4_d_21_135" x="92" y="9" width="45" height="45" filterUnits="userSpaceOnUse" color-interpolation-filters="sRGB">
<feFlood flood-opacity="0" result="BackgroundImageFix"/>
<feColorMatrix in="SourceAlpha" type="matrix" values="0 0 0 0 0 0 0 0 0 0 0 0 0 0 0 0 0 0 127 0" result="hardAlpha"/>
<feOffset dy="4"/>
<feGaussianBlur stdDeviation="2"/>
<feComposite in2="hardAlpha" operator="out"/>
<feColorMatrix type="matrix" values="0 0 0 0 0 0 0 0 0 0 0 0 0 0 0 0 0 0 0.25 0"/>
<feBlend mode="normal" in2="BackgroundImageFix" result="effect1_dropShadow_21_135"/>
<feBlend mode="normal" in="SourceGraphic" in2="effect1_dropShadow_21_135" result="shape"/>
</filter>
<filter id="filter5_d_21_135" x="584" y="117" width="45" height="45" filterUnits="userSpaceOnUse" color-interpolation-filters="sRGB">
<feFlood flood-opacity="0" result="BackgroundImageFix"/>
<feColorMatrix in="SourceAlpha" type="matrix" values="0 0 0 0 0 0 0 0 0 0 0 0 0 0 0 0 0 0 127 0" result="hardAlpha"/>
<feOffset dy="4"/>
<feGaussianBlur stdDeviation="2"/>
<feComposite in2="hardAlpha" operator="out"/>
<feColorMatrix type="matrix" values="0 0 0 0 0 0 0 0 0 0 0 0 0 0 0 0 0 0 0.25 0"/>
<feBlend mode="normal" in2="BackgroundImageFix" result="effect1_dropShadow_21_135"/>
<feBlend mode="normal" in="SourceGraphic" in2="effect1_dropShadow_21_135" result="shape"/>
</filter>
<filter id="filter6_d_21_135" x="623" y="1" width="45" height="45" filterUnits="userSpaceOnUse" color-interpolation-filters="sRGB">
<feFlood flood-opacity="0" result="BackgroundImageFix"/>
<feColorMatrix in="SourceAlpha" type="matrix" values="0 0 0 0 0 0 0 0 0 0 0 0 0 0 0 0 0 0 127 0" result="hardAlpha"/>
<feOffset dy="4"/>
<feGaussianBlur stdDeviation="2"/>
<feComposite in2="hardAlpha" operator="out"/>
<feColorMatrix type="matrix" values="0 0 0 0 0 0 0 0 0 0 0 0 0 0 0 0 0 0 0.25 0"/>
<feBlend mode="normal" in2="BackgroundImageFix" result="effect1_dropShadow_21_135"/>
<feBlend mode="normal" in="SourceGraphic" in2="effect1_dropShadow_21_135" result="shape"/>
</filter>
<filter id="filter7_d_21_135" x="621" y="0" width="45" height="45" filterUnits="userSpaceOnUse" color-interpolation-filters="sRGB">
<feFlood flood-opacity="0" result="BackgroundImageFix"/>
<feColorMatrix in="SourceAlpha" type="matrix" values="0 0 0 0 0 0 0 0 0 0 0 0 0 0 0 0 0 0 127 0" result="hardAlpha"/>
<feOffset dy="4"/>
<feGaussianBlur stdDeviation="2"/>
<feComposite in2="hardAlpha" operator="out"/>
<feColorMatrix type="matrix" values="0 0 0 0 0 0 0 0 0 0 0 0 0 0 0 0 0 0 0.25 0"/>
<feBlend mode="normal" in2="BackgroundImageFix" result="effect1_dropShadow_21_135"/>
<feBlend mode="normal" in="SourceGraphic" in2="effect1_dropShadow_21_135" result="shape"/>
</filter>
<filter id="filter8_d_21_135" x="968" y="120" width="45" height="45" filterUnits="userSpaceOnUse" color-interpolation-filters="sRGB">
<feFlood flood-opacity="0" result="BackgroundImageFix"/>
<feColorMatrix in="SourceAlpha" type="matrix" values="0 0 0 0 0 0 0 0 0 0 0 0 0 0 0 0 0 0 127 0" result="hardAlpha"/>
<feOffset dy="4"/>
<feGaussianBlur stdDeviation="2"/>
<feComposite in2="hardAlpha" operator="out"/>
<feColorMatrix type="matrix" values="0 0 0 0 0 0 0 0 0 0 0 0 0 0 0 0 0 0 0.25 0"/>
<feBlend mode="normal" in2="BackgroundImageFix" result="effect1_dropShadow_21_135"/>
<feBlend mode="normal" in="SourceGraphic" in2="effect1_dropShadow_21_135" result="shape"/>
</filter>
<filter id="filter9_d_21_135" x="774" y="212" width="45" height="45" filterUnits="userSpaceOnUse" color-interpolation-filters="sRGB">
<feFlood flood-opacity="0" result="BackgroundImageFix"/>
<feColorMatrix in="SourceAlpha" type="matrix" values="0 0 0 0 0 0 0 0 0 0 0 0 0 0 0 0 0 0 127 0" result="hardAlpha"/>
<feOffset dy="4"/>
<feGaussianBlur stdDeviation="2"/>
<feComposite in2="hardAlpha" operator="out"/>
<feColorMatrix type="matrix" values="0 0 0 0 0 0 0 0 0 0 0 0 0 0 0 0 0 0 0.25 0"/>
<feBlend mode="normal" in2="BackgroundImageFix" result="effect1_dropShadow_21_135"/>
<feBlend mode="normal" in="SourceGraphic" in2="effect1_dropShadow_21_135" result="shape"/>
</filter>
<filter id="filter10_d_21_135" x="658" y="202" width="23" height="23" filterUnits="userSpaceOnUse" color-interpolation-filters="sRGB">
<feFlood flood-opacity="0" result="BackgroundImageFix"/>
<feColorMatrix in="SourceAlpha" type="matrix" values="0 0 0 0 0 0 0 0 0 0 0 0 0 0 0 0 0 0 127 0" result="hardAlpha"/>
<feOffset dy="4"/>
<feGaussianBlur stdDeviation="2"/>
<feComposite in2="hardAlpha" operator="out"/>
<feColorMatrix type="matrix" values="0 0 0 0 0 0 0 0 0 0 0 0 0 0 0 0 0 0 0.25 0"/>
<feBlend mode="normal" in2="BackgroundImageFix" result="effect1_dropShadow_21_135"/>
<feBlend mode="normal" in="SourceGraphic" in2="effect1_dropShadow_21_135" result="shape"/>
</filter>
<filter id="filter11_d_21_135" x="658" y="219" width="23" height="23" filterUnits="userSpaceOnUse" color-interpolation-filters="sRGB">
<feFlood flood-opacity="0" result="BackgroundImageFix"/>
<feColorMatrix in="SourceAlpha" type="matrix" values="0 0 0 0 0 0 0 0 0 0 0 0 0 0 0 0 0 0 127 0" result="hardAlpha"/>
<feOffset dy="4"/>
<feGaussianBlur stdDeviation="2"/>
<feComposite in2="hardAlpha" operator="out"/>
<feColorMatrix type="matrix" values="0 0 0 0 0 0 0 0 0 0 0 0 0 0 0 0 0 0 0.25 0"/>
<feBlend mode="normal" in2="BackgroundImageFix" result="effect1_dropShadow_21_135"/>
<feBlend mode="normal" in="SourceGraphic" in2="effect1_dropShadow_21_135" result="shape"/>
</filter>
<filter id="filter12_d_21_135" x="658" y="237" width="23" height="23" filterUnits="userSpaceOnUse" color-interpolation-filters="sRGB">
<feFlood flood-opacity="0" result="BackgroundImageFix"/>
<feColorMatrix in="SourceAlpha" type="matrix" values="0 0 0 0 0 0 0 0 0 0 0 0 0 0 0 0 0 0 127 0" result="hardAlpha"/>
<feOffset dy="4"/>
<feGaussianBlur stdDeviation="2"/>
<feComposite in2="hardAlpha" operator="out"/>
<feColorMatrix type="matrix" values="0 0 0 0 0 0 0 0 0 0 0 0 0 0 0 0 0 0 0.25 0"/>
<feBlend mode="normal" in2="BackgroundImageFix" result="effect1_dropShadow_21_135"/>
<feBlend mode="normal" in="SourceGraphic" in2="effect1_dropShadow_21_135" result="shape"/>
</filter>
<filter id="filter13_d_21_135" x="856" y="202" width="23" height="23" filterUnits="userSpaceOnUse" color-interpolation-filters="sRGB">
<feFlood flood-opacity="0" result="BackgroundImageFix"/>
<feColorMatrix in="SourceAlpha" type="matrix" values="0 0 0 0 0 0 0 0 0 0 0 0 0 0 0 0 0 0 127 0" result="hardAlpha"/>
<feOffset dy="4"/>
<feGaussianBlur stdDeviation="2"/>
<feComposite in2="hardAlpha" operator="out"/>
<feColorMatrix type="matrix" values="0 0 0 0 0 0 0 0 0 0 0 0 0 0 0 0 0 0 0.25 0"/>
<feBlend mode="normal" in2="BackgroundImageFix" result="effect1_dropShadow_21_135"/>
<feBlend mode="normal" in="SourceGraphic" in2="effect1_dropShadow_21_135" result="shape"/>
</filter>
<filter id="filter14_d_21_135" x="856" y="219" width="23" height="23" filterUnits="userSpaceOnUse" color-interpolation-filters="sRGB">
<feFlood flood-opacity="0" result="BackgroundImageFix"/>
<feColorMatrix in="SourceAlpha" type="matrix" values="0 0 0 0 0 0 0 0 0 0 0 0 0 0 0 0 0 0 127 0" result="hardAlpha"/>
<feOffset dy="4"/>
<feGaussianBlur stdDeviation="2"/>
<feComposite in2="hardAlpha" operator="out"/>
<feColorMatrix type="matrix" values="0 0 0 0 0 0 0 0 0 0 0 0 0 0 0 0 0 0 0.25 0"/>
<feBlend mode="normal" in2="BackgroundImageFix" result="effect1_dropShadow_21_135"/>
<feBlend mode="normal" in="SourceGraphic" in2="effect1_dropShadow_21_135" result="shape"/>
</filter>
<filter id="filter15_d_21_135" x="856" y="237" width="23" height="23" filterUnits="userSpaceOnUse" color-interpolation-filters="sRGB">
<feFlood flood-opacity="0" result="BackgroundImageFix"/>
<feColorMatrix in="SourceAlpha" type="matrix" values="0 0 0 0 0 0 0 0 0 0 0 0 0 0 0 0 0 0 127 0" result="hardAlpha"/>
<feOffset dy="4"/>
<feGaussianBlur stdDeviation="2"/>
<feComposite in2="hardAlpha" operator="out"/>
<feColorMatrix type="matrix" values="0 0 0 0 0 0 0 0 0 0 0 0 0 0 0 0 0 0 0.25 0"/>
<feBlend mode="normal" in2="BackgroundImageFix" result="effect1_dropShadow_21_135"/>
<feBlend mode="normal" in="SourceGraphic" in2="effect1_dropShadow_21_135" result="shape"/>
</filter>
<filter id="filter16_d_21_135" x="855" y="47" width="23" height="23" filterUnits="userSpaceOnUse" color-interpolation-filters="sRGB">
<feFlood flood-opacity="0" result="BackgroundImageFix"/>
<feColorMatrix in="SourceAlpha" type="matrix" values="0 0 0 0 0 0 0 0 0 0 0 0 0 0 0 0 0 0 127 0" result="hardAlpha"/>
<feOffset dy="4"/>
<feGaussianBlur stdDeviation="2"/>
<feComposite in2="hardAlpha" operator="out"/>
<feColorMatrix type="matrix" values="0 0 0 0 0 0 0 0 0 0 0 0 0 0 0 0 0 0 0.25 0"/>
<feBlend mode="normal" in2="BackgroundImageFix" result="effect1_dropShadow_21_135"/>
<feBlend mode="normal" in="SourceGraphic" in2="effect1_dropShadow_21_135" result="shape"/>
</filter>
<filter id="filter17_d_21_135" x="855" y="64" width="23" height="23" filterUnits="userSpaceOnUse" color-interpolation-filters="sRGB">
<feFlood flood-opacity="0" result="BackgroundImageFix"/>
<feColorMatrix in="SourceAlpha" type="matrix" values="0 0 0 0 0 0 0 0 0 0 0 0 0 0 0 0 0 0 127 0" result="hardAlpha"/>
<feOffset dy="4"/>
<feGaussianBlur stdDeviation="2"/>
<feComposite in2="hardAlpha" operator="out"/>
<feColorMatrix type="matrix" values="0 0 0 0 0 0 0 0 0 0 0 0 0 0 0 0 0 0 0.25 0"/>
<feBlend mode="normal" in2="BackgroundImageFix" result="effect1_dropShadow_21_135"/>
<feBlend mode="normal" in="SourceGraphic" in2="effect1_dropShadow_21_135" result="shape"/>
</filter>
<filter id="filter18_d_21_135" x="873" y="93" width="23" height="23" filterUnits="userSpaceOnUse" color-interpolation-filters="sRGB">
<feFlood flood-opacity="0" result="BackgroundImageFix"/>
<feColorMatrix in="SourceAlpha" type="matrix" values="0 0 0 0 0 0 0 0 0 0 0 0 0 0 0 0 0 0 127 0" result="hardAlpha"/>
<feOffset dy="4"/>
<feGaussianBlur stdDeviation="2"/>
<feComposite in2="hardAlpha" operator="out"/>
<feColorMatrix type="matrix" values="0 0 0 0 0 0 0 0 0 0 0 0 0 0 0 0 0 0 0.25 0"/>
<feBlend mode="normal" in2="BackgroundImageFix" result="effect1_dropShadow_21_135"/>
<feBlend mode="normal" in="SourceGraphic" in2="effect1_dropShadow_21_135" result="shape"/>
</filter>
<filter id="filter19_d_21_135" x="876" y="174" width="23" height="23" filterUnits="userSpaceOnUse" color-interpolation-filters="sRGB">
<feFlood flood-opacity="0" result="BackgroundImageFix"/>
<feColorMatrix in="SourceAlpha" type="matrix" values="0 0 0 0 0 0 0 0 0 0 0 0 0 0 0 0 0 0 127 0" result="hardAlpha"/>
<feOffset dy="4"/>
<feGaussianBlur stdDeviation="2"/>
<feComposite in2="hardAlpha" operator="out"/>
<feColorMatrix type="matrix" values="0 0 0 0 0 0 0 0 0 0 0 0 0 0 0 0 0 0 0.25 0"/>
<feBlend mode="normal" in2="BackgroundImageFix" result="effect1_dropShadow_21_135"/>
<feBlend mode="normal" in="SourceGraphic" in2="effect1_dropShadow_21_135" result="shape"/>
</filter>
<filter id="filter20_d_21_135" x="268" y="9" width="23" height="23" filterUnits="userSpaceOnUse" color-interpolation-filters="sRGB">
<feFlood flood-opacity="0" result="BackgroundImageFix"/>
<feColorMatrix in="SourceAlpha" type="matrix" values="0 0 0 0 0 0 0 0 0 0 0 0 0 0 0 0 0 0 127 0" result="hardAlpha"/>
<feOffset dy="4"/>
<feGaussianBlur stdDeviation="2"/>
<feComposite in2="hardAlpha" operator="out"/>
<feColorMatrix type="matrix" values="0 0 0 0 0 0 0 0 0 0 0 0 0 0 0 0 0 0 0.25 0"/>
<feBlend mode="normal" in2="BackgroundImageFix" result="effect1_dropShadow_21_135"/>
<feBlend mode="normal" in="SourceGraphic" in2="effect1_dropShadow_21_135" result="shape"/>
</filter>
<filter id="filter21_d_21_135" x="249" y="9" width="23" height="23" filterUnits="userSpaceOnUse" color-interpolation-filters="sRGB">
<feFlood flood-opacity="0" result="BackgroundImageFix"/>
<feColorMatrix in="SourceAlpha" type="matrix" values="0 0 0 0 0 0 0 0 0 0 0 0 0 0 0 0 0 0 127 0" result="hardAlpha"/>
<feOffset dy="4"/>
<feGaussianBlur stdDeviation="2"/>
<feComposite in2="hardAlpha" operator="out"/>
<feColorMatrix type="matrix" values="0 0 0 0 0 0 0 0 0 0 0 0 0 0 0 0 0 0 0.25 0"/>
<feBlend mode="normal" in2="BackgroundImageFix" result="effect1_dropShadow_21_135"/>
<feBlend mode="normal" in="SourceGraphic" in2="effect1_dropShadow_21_135" result="shape"/>
</filter>
<filter id="filter22_d_21_135" x="231" y="9" width="23" height="23" filterUnits="userSpaceOnUse" color-interpolation-filters="sRGB">
<feFlood flood-opacity="0" result="BackgroundImageFix"/>
<feColorMatrix in="SourceAlpha" type="matrix" values="0 0 0 0 0 0 0 0 0 0 0 0 0 0 0 0 0 0 127 0" result="hardAlpha"/>
<feOffset dy="4"/>
<feGaussianBlur stdDeviation="2"/>
<feComposite in2="hardAlpha" operator="out"/>
<feColorMatrix type="matrix" values="0 0 0 0 0 0 0 0 0 0 0 0 0 0 0 0 0 0 0.25 0"/>
<feBlend mode="normal" in2="BackgroundImageFix" result="effect1_dropShadow_21_135"/>
<feBlend mode="normal" in="SourceGraphic" in2="effect1_dropShadow_21_135" result="shape"/>
</filter>
<filter id="filter23_d_21_135" x="638" y="64" width="23" height="23" filterUnits="userSpaceOnUse" color-interpolation-filters="sRGB">
<feFlood flood-opacity="0" result="BackgroundImageFix"/>
<feColorMatrix in="SourceAlpha" type="matrix" values="0 0 0 0 0 0 0 0 0 0 0 0 0 0 0 0 0 0 127 0" result="hardAlpha"/>
<feOffset dy="4"/>
<feGaussianBlur stdDeviation="2"/>
<feComposite in2="hardAlpha" operator="out"/>
<feColorMatrix type="matrix" values="0 0 0 0 0 0 0 0 0 0 0 0 0 0 0 0 0 0 0.25 0"/>
<feBlend mode="normal" in2="BackgroundImageFix" result="effect1_dropShadow_21_135"/>
<feBlend mode="normal" in="SourceGraphic" in2="effect1_dropShadow_21_135" result="shape"/>
</filter>
<filter id="filter24_d_21_135" x="638" y="81" width="23" height="23" filterUnits="userSpaceOnUse" color-interpolation-filters="sRGB">
<feFlood flood-opacity="0" result="BackgroundImageFix"/>
<feColorMatrix in="SourceAlpha" type="matrix" values="0 0 0 0 0 0 0 0 0 0 0 0 0 0 0 0 0 0 127 0" result="hardAlpha"/>
<feOffset dy="4"/>
<feGaussianBlur stdDeviation="2"/>
<feComposite in2="hardAlpha" operator="out"/>
<feColorMatrix type="matrix" values="0 0 0 0 0 0 0 0 0 0 0 0 0 0 0 0 0 0 0.25 0"/>
<feBlend mode="normal" in2="BackgroundImageFix" result="effect1_dropShadow_21_135"/>
<feBlend mode="normal" in="SourceGraphic" in2="effect1_dropShadow_21_135" result="shape"/>
</filter>
<filter id="filter25_d_21_135" x="638" y="97" width="23" height="23" filterUnits="userSpaceOnUse" color-interpolation-filters="sRGB">
<feFlood flood-opacity="0" result="BackgroundImageFix"/>
<feColorMatrix in="SourceAlpha" type="matrix" values="0 0 0 0 0 0 0 0 0 0 0 0 0 0 0 0 0 0 127 0" result="hardAlpha"/>
<feOffset dy="4"/>
<feGaussianBlur stdDeviation="2"/>
<feComposite in2="hardAlpha" operator="out"/>
<feColorMatrix type="matrix" values="0 0 0 0 0 0 0 0 0 0 0 0 0 0 0 0 0 0 0.25 0"/>
<feBlend mode="normal" in2="BackgroundImageFix" result="effect1_dropShadow_21_135"/>
<feBlend mode="normal" in="SourceGraphic" in2="effect1_dropShadow_21_135" result="shape"/>
</filter>
<filter id="filter26_d_21_135" x="0" y="93" width="45" height="45" filterUnits="userSpaceOnUse" color-interpolation-filters="sRGB">
<feFlood flood-opacity="0" result="BackgroundImageFix"/>
<feColorMatrix in="SourceAlpha" type="matrix" values="0 0 0 0 0 0 0 0 0 0 0 0 0 0 0 0 0 0 127 0" result="hardAlpha"/>
<feOffset dy="4"/>
<feGaussianBlur stdDeviation="2"/>
<feComposite in2="hardAlpha" operator="out"/>
<feColorMatrix type="matrix" values="0 0 0 0 0 0 0 0 0 0 0 0 0 0 0 0 0 0 0.25 0"/>
<feBlend mode="normal" in2="BackgroundImageFix" result="effect1_dropShadow_21_135"/>
<feBlend mode="normal" in="SourceGraphic" in2="effect1_dropShadow_21_135" result="shape"/>
</filter>
</defs>
</svg>
