<svg width="1440" height="1024" viewBox="0 0 1440 1024" fill="none" xmlns="http://www.w3.org/2000/svg">
<g filter="url(#filter0_d_0_1)">
<circle cx="100.5" cy="77.5" r="18.5" fill="#D9D9D9"/>
</g>
<circle cx="100.5" cy="77.5" r="13.5" fill="black"/>
<g filter="url(#filter1_d_0_1)">
<circle cx="1327.5" cy="281.5" r="18.5" fill="#D9D9D9"/>
</g>
<circle cx="1327.5" cy="281.5" r="13.5" fill="black"/>
<g filter="url(#filter2_d_0_1)">
<circle cx="1327.5" cy="322.5" r="18.5" fill="#D9D9D9"/>
</g>
<circle cx="1327.5" cy="322.5" r="13.5" fill="black"/>
<path d="M98 203L180.484 285.484" stroke="#D9D9D9" stroke-width="15"/>
<path d="M174 284L1314 284" stroke="#D9D9D9" stroke-width="15"/>
<path d="M513 115V231" stroke="#D9D9D9" stroke-width="8"/>
<path d="M1166 123V239" stroke="#D9D9D9" stroke-width="8"/>
<path d="M1189 121V237" stroke="#D9D9D9" stroke-width="8"/>
<path d="M1212 126V242" stroke="#D9D9D9" stroke-width="8"/>
<path d="M1239 130V246" stroke="#D9D9D9" stroke-width="8"/>
<path d="M1239 48V164" stroke="#D9D9D9" stroke-width="8"/>
<path d="M1166 42V158" stroke="#D9D9D9" stroke-width="8"/>
<path d="M1189 41V157" stroke="#D9D9D9" stroke-width="8"/>
<path d="M1212 42V158" stroke="#D9D9D9" stroke-width="8"/>
<path d="M568 252H701" stroke="#D9D9D9" stroke-width="8"/>
<path d="M564 235H701" stroke="#D9D9D9" stroke-width="8"/>
<path d="M908 217L1149 217" stroke="#D9D9D9" stroke-width="8"/>
<path d="M910 252H1045" stroke="#D9D9D9" stroke-width="8"/>
<path d="M911 235H1046" stroke="#D9D9D9" stroke-width="8"/>
<path d="M547 113L682 113" stroke="#D9D9D9" stroke-width="8"/>
<path d="M547 97L682 97" stroke="#D9D9D9" stroke-width="8"/>
<path d="M908 62L1043 62" stroke="#D9D9D9" stroke-width="8"/>
<path d="M1064 46L1199 46" stroke="#D9D9D9" stroke-width="8"/>
<path d="M1061 238H1196" stroke="#D9D9D9" stroke-width="8"/>
<path d="M547 81L682 81" stroke="#D9D9D9" stroke-width="8"/>
<path d="M564 217H701" stroke="#D9D9D9" stroke-width="8"/>
<path d="M904 79L1139 79" stroke="#D9D9D9" stroke-width="8"/>
<path d="M919 111L1090 111" stroke="#D9D9D9" stroke-width="8"/>
<path d="M922 189H1093" stroke="#D9D9D9" stroke-width="8"/>
<path d="M1087 110L1114 137" stroke="#D9D9D9" stroke-width="8"/>
<path d="M1136 78L1166 106" stroke="#D9D9D9" stroke-width="8"/>
<path d="M1090 190L1115 161" stroke="#D9D9D9" stroke-width="8"/>
<path d="M487 134V231" stroke="#D9D9D9" stroke-width="8"/>
<path d="M404 110L404 143" stroke="#D9D9D9" stroke-width="8"/>
<path d="M404 164L404 197" stroke="#D9D9D9" stroke-width="8"/>
<path d="M440 168L440 201" stroke="#D9D9D9" stroke-width="8"/>
<path d="M348 73L405.778 113.111" stroke="#D9D9D9" stroke-width="8"/>
<path d="M465.222 82L439 113" stroke="#D9D9D9" stroke-width="8"/>
<path d="M358 257L405.839 237" stroke="#D9D9D9" stroke-width="8"/>
<path d="M403 208L403 241" stroke="#D9D9D9" stroke-width="8"/>
<path d="M440 210V237" stroke="#D9D9D9" stroke-width="8"/>
<path d="M438 234L483.988 257.202" stroke="#D9D9D9" stroke-width="8"/>
<path d="M440 110L440 149" stroke="#D9D9D9" stroke-width="8"/>
<path d="M251.22 127L251 205" stroke="#D9D9D9" stroke-width="8"/>
<path d="M487.22 122L487 136" stroke="#D9D9D9" stroke-width="8"/>
<path d="M351 133L351 215" stroke="#D9D9D9" stroke-width="8"/>
<path d="M321 130L321 212" stroke="#D9D9D9" stroke-width="8"/>
<path d="M280 27L280 109" stroke="#D9D9D9" stroke-width="8"/>
<path d="M316 27L316 109" stroke="#D9D9D9" stroke-width="8"/>
<path d="M297 26L297 108" stroke="#D9D9D9" stroke-width="8"/>
<path d="M280 130L280 212" stroke="#D9D9D9" stroke-width="8"/>
<path d="M100 91V208" stroke="#D9D9D9" stroke-width="15"/>
<g filter="url(#filter3_d_0_1)">
<circle cx="151.5" cy="35.5" r="18.5" fill="#D9D9D9"/>
</g>
<circle cx="151.5" cy="35.5" r="13.5" fill="black"/>
<path d="M149 161L231.484 243.484" stroke="#D9D9D9" stroke-width="15"/>
<path d="M807.204 25.8299L833.796 58.1701" stroke="#D9D9D9" stroke-width="15"/>
<path d="M225 242L341.643 243.239" stroke="#D9D9D9" stroke-width="15"/>
<path d="M151 49V166" stroke="#D9D9D9" stroke-width="15"/>
<path d="M832 53V84" stroke="#D9D9D9" stroke-width="15"/>
<path d="M834 206V235" stroke="#D9D9D9" stroke-width="15"/>
<g filter="url(#filter4_d_0_1)">
<circle cx="643.5" cy="143.5" r="18.5" transform="rotate(-90 643.5 143.5)" fill="#D9D9D9"/>
</g>
<circle cx="643.5" cy="143.5" r="13.5" transform="rotate(-90 643.5 143.5)" fill="black"/>
<path d="M656.999 142.859L773.999 142.859" stroke="#D9D9D9" stroke-width="15"/>
<path d="M895 146L1012 146" stroke="#D9D9D9" stroke-width="15"/>
<g filter="url(#filter5_d_0_1)">
<circle cx="682.5" cy="27.5" r="18.5" transform="rotate(-90 682.5 27.5)" fill="#D9D9D9"/>
</g>
<g filter="url(#filter6_d_0_1)">
<circle cx="680.5" cy="26.5" r="18.5" transform="rotate(-90 680.5 26.5)" fill="#D9D9D9"/>
</g>
<circle cx="680.5" cy="26.5" r="13.5" transform="rotate(-90 680.5 26.5)" fill="black"/>
<g filter="url(#filter7_d_0_1)">
<circle cx="1027.5" cy="146.5" r="18.5" transform="rotate(-90 1027.5 146.5)" fill="#D9D9D9"/>
</g>
<circle cx="1027.5" cy="146.5" r="13.5" transform="rotate(-90 1027.5 146.5)" fill="black"/>
<g filter="url(#filter8_d_0_1)">
<circle cx="833.5" cy="238.5" r="18.5" transform="rotate(-90 833.5 238.5)" fill="#D9D9D9"/>
</g>
<circle cx="833.5" cy="238.5" r="13.5" transform="rotate(-90 833.5 238.5)" fill="black"/>
<g filter="url(#filter9_d_0_1)">
<circle cx="706.5" cy="217.5" r="7.5" transform="rotate(-90 706.5 217.5)" fill="#D9D9D9"/>
</g>
<circle cx="706.5" cy="217.5" r="5.25" transform="rotate(-90 706.5 217.5)" fill="black"/>
<g filter="url(#filter10_d_0_1)">
<circle cx="706.5" cy="234.5" r="7.5" transform="rotate(-90 706.5 234.5)" fill="#D9D9D9"/>
</g>
<circle cx="706.5" cy="234.5" r="5.25" transform="rotate(-90 706.5 234.5)" fill="black"/>
<g filter="url(#filter11_d_0_1)">
<circle cx="706.5" cy="252.5" r="7.5" transform="rotate(-90 706.5 252.5)" fill="#D9D9D9"/>
</g>
<circle cx="706.5" cy="252.5" r="5.25" transform="rotate(-90 706.5 252.5)" fill="black"/>
<g filter="url(#filter12_d_0_1)">
<circle cx="904.5" cy="217.5" r="7.5" transform="rotate(-90 904.5 217.5)" fill="#D9D9D9"/>
</g>
<circle cx="904.5" cy="217.5" r="5.25" transform="rotate(-90 904.5 217.5)" fill="black"/>
<g filter="url(#filter13_d_0_1)">
<circle cx="904.5" cy="234.5" r="7.5" transform="rotate(-90 904.5 234.5)" fill="#D9D9D9"/>
</g>
<circle cx="904.5" cy="234.5" r="5.25" transform="rotate(-90 904.5 234.5)" fill="black"/>
<g filter="url(#filter14_d_0_1)">
<circle cx="904.5" cy="252.5" r="7.5" transform="rotate(-90 904.5 252.5)" fill="#D9D9D9"/>
</g>
<circle cx="904.5" cy="252.5" r="5.25" transform="rotate(-90 904.5 252.5)" fill="black"/>
<g filter="url(#filter15_d_0_1)">
<circle cx="903.5" cy="62.5" r="7.5" transform="rotate(-90 903.5 62.5)" fill="#D9D9D9"/>
</g>
<circle cx="903.5" cy="62.5" r="5.25" transform="rotate(-90 903.5 62.5)" fill="black"/>
<g filter="url(#filter16_d_0_1)">
<circle cx="903.5" cy="79.5" r="7.5" transform="rotate(-90 903.5 79.5)" fill="#D9D9D9"/>
</g>
<circle cx="903.5" cy="79.5" r="5.25" transform="rotate(-90 903.5 79.5)" fill="black"/>
<g filter="url(#filter17_d_0_1)">
<circle cx="921.5" cy="108.5" r="7.5" transform="rotate(-90 921.5 108.5)" fill="#D9D9D9"/>
</g>
<circle cx="921.5" cy="108.5" r="5.25" transform="rotate(-90 921.5 108.5)" fill="black"/>
<g filter="url(#filter18_d_0_1)">
<circle cx="924.5" cy="189.5" r="7.5" transform="rotate(-90 924.5 189.5)" fill="#D9D9D9"/>
</g>
<circle cx="924.5" cy="189.5" r="5.25" transform="rotate(-90 924.5 189.5)" fill="black"/>
<g filter="url(#filter19_d_0_1)">
<circle cx="316.5" cy="24.5" r="7.5" fill="#D9D9D9"/>
</g>
<circle cx="316.5" cy="24.5" r="5.25" fill="black"/>
<g filter="url(#filter20_d_0_1)">
<circle cx="297.5" cy="24.5" r="7.5" fill="#D9D9D9"/>
</g>
<circle cx="297.5" cy="24.5" r="5.25" fill="black"/>
<g filter="url(#filter21_d_0_1)">
<circle cx="279.5" cy="24.5" r="7.5" fill="#D9D9D9"/>
</g>
<circle cx="279.5" cy="24.5" r="5.25" fill="black"/>
<g filter="url(#filter22_d_0_1)">
<circle cx="686.5" cy="79.5" r="7.5" transform="rotate(-90 686.5 79.5)" fill="#D9D9D9"/>
</g>
<circle cx="686.5" cy="79.5" r="5.25" transform="rotate(-90 686.5 79.5)" fill="black"/>
<g filter="url(#filter23_d_0_1)">
<circle cx="686.5" cy="96.5" r="7.5" transform="rotate(-90 686.5 96.5)" fill="#D9D9D9"/>
</g>
<circle cx="686.5" cy="96.5" r="5.25" transform="rotate(-90 686.5 96.5)" fill="black"/>
<g filter="url(#filter24_d_0_1)">
<circle cx="686.5" cy="112.5" r="7.5" transform="rotate(-90 686.5 112.5)" fill="#D9D9D9"/>
</g>
<circle cx="686.5" cy="112.5" r="5.25" transform="rotate(-90 686.5 112.5)" fill="black"/>
<path d="M697 28L813.001 28.1409" stroke="#D9D9D9" stroke-width="15"/>
<g filter="url(#filter25_d_0_1)">
<circle cx="59.5" cy="119.5" r="18.5" fill="#D9D9D9"/>
</g>
<circle cx="59.5" cy="119.5" r="13.5" fill="black"/>
<path d="M57 245L139.484 327.484" stroke="#D9D9D9" stroke-width="15"/>
<path d="M133 326L1314 326" stroke="#D9D9D9" stroke-width="15"/>
<path d="M59 133V250" stroke="#D9D9D9" stroke-width="15"/>
<rect x="244" y="203" width="114.373" height="62.7205" fill="#686868"/>
<rect x="244" y="230.056" width="114.373" height="35.6646" fill="#4E4C4C"/>
<rect x="244" y="70" width="114.373" height="62.7205" fill="#686868"/>
<rect x="244" y="97.0559" width="114.373" height="35.6646" fill="#4E4C4C"/>
<rect x="448.149" y="70" width="114.373" height="62.7205" fill="#686868"/>
<rect x="448.149" y="97.0559" width="114.373" height="35.6646" fill="#4E4C4C"/>
<rect x="464" y="200" width="114.373" height="62.7205" fill="#686868"/>
<rect x="464" y="227.056" width="114.373" height="35.6646" fill="#4E4C4C"/>
<rect x="397" y="143" width="15" height="6" fill="#D9D9D9"/>
<rect x="397" y="149" width="15" height="19" fill="#4B4B4B"/>
<rect x="433" y="149" width="15" height="6" fill="#D9D9D9"/>
<rect x="433" y="155" width="15" height="19" fill="#4B4B4B"/>
<path d="M766 140L838 212" stroke="#D9D9D9" stroke-width="8"/>
<path d="M829 78L901 150" stroke="#D9D9D9" stroke-width="8"/>
<path d="M834 78L768 144" stroke="#D9D9D9" stroke-width="8"/>
<path d="M900 145L834 211" stroke="#D9D9D9" stroke-width="8"/>
<rect x="800.749" y="100.922" width="15" height="6" transform="rotate(45 800.749 100.922)" fill="#D9D9D9"/>
<rect x="796.507" y="105.165" width="15" height="19" transform="rotate(45 796.507 105.165)" fill="#4B4B4B"/>
<rect x="873.678" y="158" width="15" height="6" transform="rotate(45 873.678 158)" fill="#D9D9D9"/>
<rect x="869.435" y="162.243" width="15" height="19" transform="rotate(45 869.435 162.243)" fill="#4B4B4B"/>
<rect x="1104.27" y="134.162" width="15" height="6" fill="#D9D9D9"/>
<rect x="1104.27" y="159" width="15" height="6" fill="#D9D9D9"/>
<rect x="1104.27" y="140.162" width="15" height="19" fill="#4B4B4B"/>
<rect x="851.804" y="110.507" width="15" height="6" transform="rotate(-45 851.804 110.507)" fill="#D9D9D9"/>
<rect x="856.046" y="114.749" width="15" height="19" transform="rotate(-45 856.046 114.749)" fill="#4B4B4B"/>
<rect x="783" y="168.607" width="15" height="6" transform="rotate(-45 783 168.607)" fill="#D9D9D9"/>
<rect x="787.243" y="172.849" width="15" height="19" transform="rotate(-45 787.243 172.849)" fill="#4B4B4B"/>
<rect x="396" y="185" width="15" height="6" fill="#D9D9D9"/>
<rect x="396" y="191" width="15" height="19" fill="#4B4B4B"/>
<rect x="433" y="185" width="15" height="6" fill="#D9D9D9"/>
<rect x="433" y="191" width="15" height="19" fill="#4B4B4B"/>
<rect x="1149" y="122" width="114.373" height="35.6646" fill="#4E4C4C"/>
<rect x="985" y="31" width="114.373" height="35.6646" fill="#4E4C4C"/>
<rect x="1149" y="33" width="114.373" height="35.6646" fill="#4E4C4C"/>
<rect x="1149" y="211" width="114.373" height="35.6646" fill="#4E4C4C"/>
<rect x="990" y="221" width="114.373" height="35.6646" fill="#4E4C4C"/>
<defs>
<filter id="filter0_d_0_1" x="78" y="59" width="45" height="45" filterUnits="userSpaceOnUse" color-interpolation-filters="sRGB">
<feFlood flood-opacity="0" result="BackgroundImageFix"/>
<feColorMatrix in="SourceAlpha" type="matrix" values="0 0 0 0 0 0 0 0 0 0 0 0 0 0 0 0 0 0 127 0" result="hardAlpha"/>
<feOffset dy="4"/>
<feGaussianBlur stdDeviation="2"/>
<feComposite in2="hardAlpha" operator="out"/>
<feColorMatrix type="matrix" values="0 0 0 0 0 0 0 0 0 0 0 0 0 0 0 0 0 0 0.25 0"/>
<feBlend mode="normal" in2="BackgroundImageFix" result="effect1_dropShadow_0_1"/>
<feBlend mode="normal" in="SourceGraphic" in2="effect1_dropShadow_0_1" result="shape"/>
</filter>
<filter id="filter1_d_0_1" x="1305" y="263" width="45" height="45" filterUnits="userSpaceOnUse" color-interpolation-filters="sRGB">
<feFlood flood-opacity="0" result="BackgroundImageFix"/>
<feColorMatrix in="SourceAlpha" type="matrix" values="0 0 0 0 0 0 0 0 0 0 0 0 0 0 0 0 0 0 127 0" result="hardAlpha"/>
<feOffset dy="4"/>
<feGaussianBlur stdDeviation="2"/>
<feComposite in2="hardAlpha" operator="out"/>
<feColorMatrix type="matrix" values="0 0 0 0 0 0 0 0 0 0 0 0 0 0 0 0 0 0 0.25 0"/>
<feBlend mode="normal" in2="BackgroundImageFix" result="effect1_dropShadow_0_1"/>
<feBlend mode="normal" in="SourceGraphic" in2="effect1_dropShadow_0_1" result="shape"/>
</filter>
<filter id="filter2_d_0_1" x="1305" y="304" width="45" height="45" filterUnits="userSpaceOnUse" color-interpolation-filters="sRGB">
<feFlood flood-opacity="0" result="BackgroundImageFix"/>
<feColorMatrix in="SourceAlpha" type="matrix" values="0 0 0 0 0 0 0 0 0 0 0 0 0 0 0 0 0 0 127 0" result="hardAlpha"/>
<feOffset dy="4"/>
<feGaussianBlur stdDeviation="2"/>
<feComposite in2="hardAlpha" operator="out"/>
<feColorMatrix type="matrix" values="0 0 0 0 0 0 0 0 0 0 0 0 0 0 0 0 0 0 0.25 0"/>
<feBlend mode="normal" in2="BackgroundImageFix" result="effect1_dropShadow_0_1"/>
<feBlend mode="normal" in="SourceGraphic" in2="effect1_dropShadow_0_1" result="shape"/>
</filter>
<filter id="filter3_d_0_1" x="129" y="17" width="45" height="45" filterUnits="userSpaceOnUse" color-interpolation-filters="sRGB">
<feFlood flood-opacity="0" result="BackgroundImageFix"/>
<feColorMatrix in="SourceAlpha" type="matrix" values="0 0 0 0 0 0 0 0 0 0 0 0 0 0 0 0 0 0 127 0" result="hardAlpha"/>
<feOffset dy="4"/>
<feGaussianBlur stdDeviation="2"/>
<feComposite in2="hardAlpha" operator="out"/>
<feColorMatrix type="matrix" values="0 0 0 0 0 0 0 0 0 0 0 0 0 0 0 0 0 0 0.25 0"/>
<feBlend mode="normal" in2="BackgroundImageFix" result="effect1_dropShadow_0_1"/>
<feBlend mode="normal" in="SourceGraphic" in2="effect1_dropShadow_0_1" result="shape"/>
</filter>
<filter id="filter4_d_0_1" x="621" y="125" width="45" height="45" filterUnits="userSpaceOnUse" color-interpolation-filters="sRGB">
<feFlood flood-opacity="0" result="BackgroundImageFix"/>
<feColorMatrix in="SourceAlpha" type="matrix" values="0 0 0 0 0 0 0 0 0 0 0 0 0 0 0 0 0 0 127 0" result="hardAlpha"/>
<feOffset dy="4"/>
<feGaussianBlur stdDeviation="2"/>
<feComposite in2="hardAlpha" operator="out"/>
<feColorMatrix type="matrix" values="0 0 0 0 0 0 0 0 0 0 0 0 0 0 0 0 0 0 0.25 0"/>
<feBlend mode="normal" in2="BackgroundImageFix" result="effect1_dropShadow_0_1"/>
<feBlend mode="normal" in="SourceGraphic" in2="effect1_dropShadow_0_1" result="shape"/>
</filter>
<filter id="filter5_d_0_1" x="660" y="9" width="45" height="45" filterUnits="userSpaceOnUse" color-interpolation-filters="sRGB">
<feFlood flood-opacity="0" result="BackgroundImageFix"/>
<feColorMatrix in="SourceAlpha" type="matrix" values="0 0 0 0 0 0 0 0 0 0 0 0 0 0 0 0 0 0 127 0" result="hardAlpha"/>
<feOffset dy="4"/>
<feGaussianBlur stdDeviation="2"/>
<feComposite in2="hardAlpha" operator="out"/>
<feColorMatrix type="matrix" values="0 0 0 0 0 0 0 0 0 0 0 0 0 0 0 0 0 0 0.25 0"/>
<feBlend mode="normal" in2="BackgroundImageFix" result="effect1_dropShadow_0_1"/>
<feBlend mode="normal" in="SourceGraphic" in2="effect1_dropShadow_0_1" result="shape"/>
</filter>
<filter id="filter6_d_0_1" x="658" y="8" width="45" height="45" filterUnits="userSpaceOnUse" color-interpolation-filters="sRGB">
<feFlood flood-opacity="0" result="BackgroundImageFix"/>
<feColorMatrix in="SourceAlpha" type="matrix" values="0 0 0 0 0 0 0 0 0 0 0 0 0 0 0 0 0 0 127 0" result="hardAlpha"/>
<feOffset dy="4"/>
<feGaussianBlur stdDeviation="2"/>
<feComposite in2="hardAlpha" operator="out"/>
<feColorMatrix type="matrix" values="0 0 0 0 0 0 0 0 0 0 0 0 0 0 0 0 0 0 0.25 0"/>
<feBlend mode="normal" in2="BackgroundImageFix" result="effect1_dropShadow_0_1"/>
<feBlend mode="normal" in="SourceGraphic" in2="effect1_dropShadow_0_1" result="shape"/>
</filter>
<filter id="filter7_d_0_1" x="1005" y="128" width="45" height="45" filterUnits="userSpaceOnUse" color-interpolation-filters="sRGB">
<feFlood flood-opacity="0" result="BackgroundImageFix"/>
<feColorMatrix in="SourceAlpha" type="matrix" values="0 0 0 0 0 0 0 0 0 0 0 0 0 0 0 0 0 0 127 0" result="hardAlpha"/>
<feOffset dy="4"/>
<feGaussianBlur stdDeviation="2"/>
<feComposite in2="hardAlpha" operator="out"/>
<feColorMatrix type="matrix" values="0 0 0 0 0 0 0 0 0 0 0 0 0 0 0 0 0 0 0.25 0"/>
<feBlend mode="normal" in2="BackgroundImageFix" result="effect1_dropShadow_0_1"/>
<feBlend mode="normal" in="SourceGraphic" in2="effect1_dropShadow_0_1" result="shape"/>
</filter>
<filter id="filter8_d_0_1" x="811" y="220" width="45" height="45" filterUnits="userSpaceOnUse" color-interpolation-filters="sRGB">
<feFlood flood-opacity="0" result="BackgroundImageFix"/>
<feColorMatrix in="SourceAlpha" type="matrix" values="0 0 0 0 0 0 0 0 0 0 0 0 0 0 0 0 0 0 127 0" result="hardAlpha"/>
<feOffset dy="4"/>
<feGaussianBlur stdDeviation="2"/>
<feComposite in2="hardAlpha" operator="out"/>
<feColorMatrix type="matrix" values="0 0 0 0 0 0 0 0 0 0 0 0 0 0 0 0 0 0 0.25 0"/>
<feBlend mode="normal" in2="BackgroundImageFix" result="effect1_dropShadow_0_1"/>
<feBlend mode="normal" in="SourceGraphic" in2="effect1_dropShadow_0_1" result="shape"/>
</filter>
<filter id="filter9_d_0_1" x="695" y="210" width="23" height="23" filterUnits="userSpaceOnUse" color-interpolation-filters="sRGB">
<feFlood flood-opacity="0" result="BackgroundImageFix"/>
<feColorMatrix in="SourceAlpha" type="matrix" values="0 0 0 0 0 0 0 0 0 0 0 0 0 0 0 0 0 0 127 0" result="hardAlpha"/>
<feOffset dy="4"/>
<feGaussianBlur stdDeviation="2"/>
<feComposite in2="hardAlpha" operator="out"/>
<feColorMatrix type="matrix" values="0 0 0 0 0 0 0 0 0 0 0 0 0 0 0 0 0 0 0.25 0"/>
<feBlend mode="normal" in2="BackgroundImageFix" result="effect1_dropShadow_0_1"/>
<feBlend mode="normal" in="SourceGraphic" in2="effect1_dropShadow_0_1" result="shape"/>
</filter>
<filter id="filter10_d_0_1" x="695" y="227" width="23" height="23" filterUnits="userSpaceOnUse" color-interpolation-filters="sRGB">
<feFlood flood-opacity="0" result="BackgroundImageFix"/>
<feColorMatrix in="SourceAlpha" type="matrix" values="0 0 0 0 0 0 0 0 0 0 0 0 0 0 0 0 0 0 127 0" result="hardAlpha"/>
<feOffset dy="4"/>
<feGaussianBlur stdDeviation="2"/>
<feComposite in2="hardAlpha" operator="out"/>
<feColorMatrix type="matrix" values="0 0 0 0 0 0 0 0 0 0 0 0 0 0 0 0 0 0 0.25 0"/>
<feBlend mode="normal" in2="BackgroundImageFix" result="effect1_dropShadow_0_1"/>
<feBlend mode="normal" in="SourceGraphic" in2="effect1_dropShadow_0_1" result="shape"/>
</filter>
<filter id="filter11_d_0_1" x="695" y="245" width="23" height="23" filterUnits="userSpaceOnUse" color-interpolation-filters="sRGB">
<feFlood flood-opacity="0" result="BackgroundImageFix"/>
<feColorMatrix in="SourceAlpha" type="matrix" values="0 0 0 0 0 0 0 0 0 0 0 0 0 0 0 0 0 0 127 0" result="hardAlpha"/>
<feOffset dy="4"/>
<feGaussianBlur stdDeviation="2"/>
<feComposite in2="hardAlpha" operator="out"/>
<feColorMatrix type="matrix" values="0 0 0 0 0 0 0 0 0 0 0 0 0 0 0 0 0 0 0.25 0"/>
<feBlend mode="normal" in2="BackgroundImageFix" result="effect1_dropShadow_0_1"/>
<feBlend mode="normal" in="SourceGraphic" in2="effect1_dropShadow_0_1" result="shape"/>
</filter>
<filter id="filter12_d_0_1" x="893" y="210" width="23" height="23" filterUnits="userSpaceOnUse" color-interpolation-filters="sRGB">
<feFlood flood-opacity="0" result="BackgroundImageFix"/>
<feColorMatrix in="SourceAlpha" type="matrix" values="0 0 0 0 0 0 0 0 0 0 0 0 0 0 0 0 0 0 127 0" result="hardAlpha"/>
<feOffset dy="4"/>
<feGaussianBlur stdDeviation="2"/>
<feComposite in2="hardAlpha" operator="out"/>
<feColorMatrix type="matrix" values="0 0 0 0 0 0 0 0 0 0 0 0 0 0 0 0 0 0 0.25 0"/>
<feBlend mode="normal" in2="BackgroundImageFix" result="effect1_dropShadow_0_1"/>
<feBlend mode="normal" in="SourceGraphic" in2="effect1_dropShadow_0_1" result="shape"/>
</filter>
<filter id="filter13_d_0_1" x="893" y="227" width="23" height="23" filterUnits="userSpaceOnUse" color-interpolation-filters="sRGB">
<feFlood flood-opacity="0" result="BackgroundImageFix"/>
<feColorMatrix in="SourceAlpha" type="matrix" values="0 0 0 0 0 0 0 0 0 0 0 0 0 0 0 0 0 0 127 0" result="hardAlpha"/>
<feOffset dy="4"/>
<feGaussianBlur stdDeviation="2"/>
<feComposite in2="hardAlpha" operator="out"/>
<feColorMatrix type="matrix" values="0 0 0 0 0 0 0 0 0 0 0 0 0 0 0 0 0 0 0.25 0"/>
<feBlend mode="normal" in2="BackgroundImageFix" result="effect1_dropShadow_0_1"/>
<feBlend mode="normal" in="SourceGraphic" in2="effect1_dropShadow_0_1" result="shape"/>
</filter>
<filter id="filter14_d_0_1" x="893" y="245" width="23" height="23" filterUnits="userSpaceOnUse" color-interpolation-filters="sRGB">
<feFlood flood-opacity="0" result="BackgroundImageFix"/>
<feColorMatrix in="SourceAlpha" type="matrix" values="0 0 0 0 0 0 0 0 0 0 0 0 0 0 0 0 0 0 127 0" result="hardAlpha"/>
<feOffset dy="4"/>
<feGaussianBlur stdDeviation="2"/>
<feComposite in2="hardAlpha" operator="out"/>
<feColorMatrix type="matrix" values="0 0 0 0 0 0 0 0 0 0 0 0 0 0 0 0 0 0 0.25 0"/>
<feBlend mode="normal" in2="BackgroundImageFix" result="effect1_dropShadow_0_1"/>
<feBlend mode="normal" in="SourceGraphic" in2="effect1_dropShadow_0_1" result="shape"/>
</filter>
<filter id="filter15_d_0_1" x="892" y="55" width="23" height="23" filterUnits="userSpaceOnUse" color-interpolation-filters="sRGB">
<feFlood flood-opacity="0" result="BackgroundImageFix"/>
<feColorMatrix in="SourceAlpha" type="matrix" values="0 0 0 0 0 0 0 0 0 0 0 0 0 0 0 0 0 0 127 0" result="hardAlpha"/>
<feOffset dy="4"/>
<feGaussianBlur stdDeviation="2"/>
<feComposite in2="hardAlpha" operator="out"/>
<feColorMatrix type="matrix" values="0 0 0 0 0 0 0 0 0 0 0 0 0 0 0 0 0 0 0.25 0"/>
<feBlend mode="normal" in2="BackgroundImageFix" result="effect1_dropShadow_0_1"/>
<feBlend mode="normal" in="SourceGraphic" in2="effect1_dropShadow_0_1" result="shape"/>
</filter>
<filter id="filter16_d_0_1" x="892" y="72" width="23" height="23" filterUnits="userSpaceOnUse" color-interpolation-filters="sRGB">
<feFlood flood-opacity="0" result="BackgroundImageFix"/>
<feColorMatrix in="SourceAlpha" type="matrix" values="0 0 0 0 0 0 0 0 0 0 0 0 0 0 0 0 0 0 127 0" result="hardAlpha"/>
<feOffset dy="4"/>
<feGaussianBlur stdDeviation="2"/>
<feComposite in2="hardAlpha" operator="out"/>
<feColorMatrix type="matrix" values="0 0 0 0 0 0 0 0 0 0 0 0 0 0 0 0 0 0 0.25 0"/>
<feBlend mode="normal" in2="BackgroundImageFix" result="effect1_dropShadow_0_1"/>
<feBlend mode="normal" in="SourceGraphic" in2="effect1_dropShadow_0_1" result="shape"/>
</filter>
<filter id="filter17_d_0_1" x="910" y="101" width="23" height="23" filterUnits="userSpaceOnUse" color-interpolation-filters="sRGB">
<feFlood flood-opacity="0" result="BackgroundImageFix"/>
<feColorMatrix in="SourceAlpha" type="matrix" values="0 0 0 0 0 0 0 0 0 0 0 0 0 0 0 0 0 0 127 0" result="hardAlpha"/>
<feOffset dy="4"/>
<feGaussianBlur stdDeviation="2"/>
<feComposite in2="hardAlpha" operator="out"/>
<feColorMatrix type="matrix" values="0 0 0 0 0 0 0 0 0 0 0 0 0 0 0 0 0 0 0.25 0"/>
<feBlend mode="normal" in2="BackgroundImageFix" result="effect1_dropShadow_0_1"/>
<feBlend mode="normal" in="SourceGraphic" in2="effect1_dropShadow_0_1" result="shape"/>
</filter>
<filter id="filter18_d_0_1" x="913" y="182" width="23" height="23" filterUnits="userSpaceOnUse" color-interpolation-filters="sRGB">
<feFlood flood-opacity="0" result="BackgroundImageFix"/>
<feColorMatrix in="SourceAlpha" type="matrix" values="0 0 0 0 0 0 0 0 0 0 0 0 0 0 0 0 0 0 127 0" result="hardAlpha"/>
<feOffset dy="4"/>
<feGaussianBlur stdDeviation="2"/>
<feComposite in2="hardAlpha" operator="out"/>
<feColorMatrix type="matrix" values="0 0 0 0 0 0 0 0 0 0 0 0 0 0 0 0 0 0 0.25 0"/>
<feBlend mode="normal" in2="BackgroundImageFix" result="effect1_dropShadow_0_1"/>
<feBlend mode="normal" in="SourceGraphic" in2="effect1_dropShadow_0_1" result="shape"/>
</filter>
<filter id="filter19_d_0_1" x="305" y="17" width="23" height="23" filterUnits="userSpaceOnUse" color-interpolation-filters="sRGB">
<feFlood flood-opacity="0" result="BackgroundImageFix"/>
<feColorMatrix in="SourceAlpha" type="matrix" values="0 0 0 0 0 0 0 0 0 0 0 0 0 0 0 0 0 0 127 0" result="hardAlpha"/>
<feOffset dy="4"/>
<feGaussianBlur stdDeviation="2"/>
<feComposite in2="hardAlpha" operator="out"/>
<feColorMatrix type="matrix" values="0 0 0 0 0 0 0 0 0 0 0 0 0 0 0 0 0 0 0.25 0"/>
<feBlend mode="normal" in2="BackgroundImageFix" result="effect1_dropShadow_0_1"/>
<feBlend mode="normal" in="SourceGraphic" in2="effect1_dropShadow_0_1" result="shape"/>
</filter>
<filter id="filter20_d_0_1" x="286" y="17" width="23" height="23" filterUnits="userSpaceOnUse" color-interpolation-filters="sRGB">
<feFlood flood-opacity="0" result="BackgroundImageFix"/>
<feColorMatrix in="SourceAlpha" type="matrix" values="0 0 0 0 0 0 0 0 0 0 0 0 0 0 0 0 0 0 127 0" result="hardAlpha"/>
<feOffset dy="4"/>
<feGaussianBlur stdDeviation="2"/>
<feComposite in2="hardAlpha" operator="out"/>
<feColorMatrix type="matrix" values="0 0 0 0 0 0 0 0 0 0 0 0 0 0 0 0 0 0 0.25 0"/>
<feBlend mode="normal" in2="BackgroundImageFix" result="effect1_dropShadow_0_1"/>
<feBlend mode="normal" in="SourceGraphic" in2="effect1_dropShadow_0_1" result="shape"/>
</filter>
<filter id="filter21_d_0_1" x="268" y="17" width="23" height="23" filterUnits="userSpaceOnUse" color-interpolation-filters="sRGB">
<feFlood flood-opacity="0" result="BackgroundImageFix"/>
<feColorMatrix in="SourceAlpha" type="matrix" values="0 0 0 0 0 0 0 0 0 0 0 0 0 0 0 0 0 0 127 0" result="hardAlpha"/>
<feOffset dy="4"/>
<feGaussianBlur stdDeviation="2"/>
<feComposite in2="hardAlpha" operator="out"/>
<feColorMatrix type="matrix" values="0 0 0 0 0 0 0 0 0 0 0 0 0 0 0 0 0 0 0.25 0"/>
<feBlend mode="normal" in2="BackgroundImageFix" result="effect1_dropShadow_0_1"/>
<feBlend mode="normal" in="SourceGraphic" in2="effect1_dropShadow_0_1" result="shape"/>
</filter>
<filter id="filter22_d_0_1" x="675" y="72" width="23" height="23" filterUnits="userSpaceOnUse" color-interpolation-filters="sRGB">
<feFlood flood-opacity="0" result="BackgroundImageFix"/>
<feColorMatrix in="SourceAlpha" type="matrix" values="0 0 0 0 0 0 0 0 0 0 0 0 0 0 0 0 0 0 127 0" result="hardAlpha"/>
<feOffset dy="4"/>
<feGaussianBlur stdDeviation="2"/>
<feComposite in2="hardAlpha" operator="out"/>
<feColorMatrix type="matrix" values="0 0 0 0 0 0 0 0 0 0 0 0 0 0 0 0 0 0 0.25 0"/>
<feBlend mode="normal" in2="BackgroundImageFix" result="effect1_dropShadow_0_1"/>
<feBlend mode="normal" in="SourceGraphic" in2="effect1_dropShadow_0_1" result="shape"/>
</filter>
<filter id="filter23_d_0_1" x="675" y="89" width="23" height="23" filterUnits="userSpaceOnUse" color-interpolation-filters="sRGB">
<feFlood flood-opacity="0" result="BackgroundImageFix"/>
<feColorMatrix in="SourceAlpha" type="matrix" values="0 0 0 0 0 0 0 0 0 0 0 0 0 0 0 0 0 0 127 0" result="hardAlpha"/>
<feOffset dy="4"/>
<feGaussianBlur stdDeviation="2"/>
<feComposite in2="hardAlpha" operator="out"/>
<feColorMatrix type="matrix" values="0 0 0 0 0 0 0 0 0 0 0 0 0 0 0 0 0 0 0.25 0"/>
<feBlend mode="normal" in2="BackgroundImageFix" result="effect1_dropShadow_0_1"/>
<feBlend mode="normal" in="SourceGraphic" in2="effect1_dropShadow_0_1" result="shape"/>
</filter>
<filter id="filter24_d_0_1" x="675" y="105" width="23" height="23" filterUnits="userSpaceOnUse" color-interpolation-filters="sRGB">
<feFlood flood-opacity="0" result="BackgroundImageFix"/>
<feColorMatrix in="SourceAlpha" type="matrix" values="0 0 0 0 0 0 0 0 0 0 0 0 0 0 0 0 0 0 127 0" result="hardAlpha"/>
<feOffset dy="4"/>
<feGaussianBlur stdDeviation="2"/>
<feComposite in2="hardAlpha" operator="out"/>
<feColorMatrix type="matrix" values="0 0 0 0 0 0 0 0 0 0 0 0 0 0 0 0 0 0 0.25 0"/>
<feBlend mode="normal" in2="BackgroundImageFix" result="effect1_dropShadow_0_1"/>
<feBlend mode="normal" in="SourceGraphic" in2="effect1_dropShadow_0_1" result="shape"/>
</filter>
<filter id="filter25_d_0_1" x="37" y="101" width="45" height="45" filterUnits="userSpaceOnUse" color-interpolation-filters="sRGB">
<feFlood flood-opacity="0" result="BackgroundImageFix"/>
<feColorMatrix in="SourceAlpha" type="matrix" values="0 0 0 0 0 0 0 0 0 0 0 0 0 0 0 0 0 0 127 0" result="hardAlpha"/>
<feOffset dy="4"/>
<feGaussianBlur stdDeviation="2"/>
<feComposite in2="hardAlpha" operator="out"/>
<feColorMatrix type="matrix" values="0 0 0 0 0 0 0 0 0 0 0 0 0 0 0 0 0 0 0.25 0"/>
<feBlend mode="normal" in2="BackgroundImageFix" result="effect1_dropShadow_0_1"/>
<feBlend mode="normal" in="SourceGraphic" in2="effect1_dropShadow_0_1" result="shape"/>
</filter>
</defs>
</svg>
